<?xml version="1.0" encoding="utf-8"?>
<!-- Generator: Adobe Illustrator 16.0.0, SVG Export Plug-In . SVG Version: 6.00 Build 0)  -->
<!DOCTYPE svg PUBLIC "-//W3C//DTD SVG 1.1//EN" "http://www.w3.org/Graphics/SVG/1.1/DTD/svg11.dtd">
<svg version="1.1" id="Layer_1" xmlns="http://www.w3.org/2000/svg" xmlns:xlink="http://www.w3.org/1999/xlink" x="0px" y="0px"
	 width="681.333px" height="230px" viewBox="0 0 681.333 230" enable-background="new 0 0 681.333 230" xml:space="preserve">
<g>
	<g>
		<path fill-rule="evenodd" clip-rule="evenodd" fill="#03EDCF" d="M13.168,105.224l3.994,15.091l13.941,5.967l52.291-41.27
			l29.28-24.125l28.646,18.802l37.069,34.594l16.718,11.5l15.468-5.468l7.265-15.091l-17.414-18.547L183.478,67.39l-6.667-48.272
			l-12.768-3.666l-7.438,5.663l-5.658,26.179l-15.309-14.805c0,0-19.303-13.702-21.3-13.702S86.051,40.417,86.051,40.417
			L13.168,105.224z"/>
		<path fill-rule="evenodd" clip-rule="evenodd" fill="#0B3D65" d="M196.895,181.233 M196.879,195.543
			c-0.071,0.635-0.143,1.271-0.214,1.905c-0.078,0.679-0.156,1.357-0.234,2.036c-4.469,15.515-13.052,21.907-29.348,21.9
			c-37.222-0.014-74.444-0.014-111.667-0.021l-0.402-0.283l-0.489,0.054c-0.593-0.621-1.313-0.692-2.099-0.497
			c-2.596-1.097-5.192-2.193-7.787-3.291c-0.732-0.573-1.465-1.146-2.196-1.72c-1.657-1.725-3.313-3.449-4.97-5.173
			c-0.317-0.386-0.633-0.771-0.949-1.156c-2.775-5.337-4.077-10.964-4.042-17.026c0.106-18.715-0.045-37.433,0.067-56.149
			c0.021-3.377-0.109-5.22-4.506-5.289c-7.223-0.113-12.746-4.009-16.735-10.052c-0.781-1.182-0.959-2.935-2.754-3.289
			c-0.053-0.966-0.106-1.932-0.16-2.897c0.045-0.954,0.23-1.938-0.597-2.7l0.241-0.082c0,0-0.012-0.253-0.013-0.253
			c-0.06-0.59-0.119-1.181-0.179-1.771c0.205-2.053,0.411-4.107,0.615-6.161c0.153-0.612,0.307-1.225,0.459-1.837
			c1.881-2.819,3.243-5.99,5.883-8.291c3.298-2.877,6.522-5.839,9.779-8.764l-0.031,0.03c7.279-5.716,14.37-11.651,21.116-17.993
			c0.298-0.267,0.596-0.534,0.894-0.802c5.978-5.077,11.955-10.154,17.933-15.232c2.549-1.699,5-3.514,6.953-5.913
			c1.839-1.501,3.677-3.001,5.515-4.501c0.864-0.82,2.815,0.475,3.681-0.345l0.832-0.624c0.418-0.356,0.664-0.891,1.081-1.248
			c1.15-0.362,1.144-0.614,1.789-1.622c0.356-0.324,0.56-0.258,0.916-0.582l0.749-0.292c0.367-0.343-0.16-1.653,0.207-1.996
			c3.959-3.341,7.239-7.496,11.198-10.837c2.182-1.764,4.322-3.582,6.553-5.282c7.123-5.425,15.563-5.218,22.764,0.72
			c7.075,5.832,14.019,11.826,21.818,18.428c0-3.207-0.112-5.183,0.02-7.142c0.583-8.728,4.771-15.059,12.97-18.277
			c1.958-0.769,3.752-0.746,5.668-1.56c0.674,0.332,1.382-0.331,2.057,0c9.959,1.683,16.289,7.269,18.535,17.243
			c0.105,0.609,0.323,3.726,0.429,4.336c-0.423,4.335-0.578,6.164-0.083,10.498c-0.002,0.653-0.004,1.307-0.007,1.96
			c-0.431,4.336,0.09,9.173,0.064,13.001c-0.123,2.741-0.306,5.483-0.354,8.227c-0.046,2.686-0.688,5.63,2.509,7.205
			c0.058,0.221,0.199,0.349,0.423,0.383c0.863,1.08,1.806,2.054,3.203,2.431l-0.057-0.075c0.395,0.332,0.788,0.666,1.182,0.998
			l-0.075-0.061c1.771,2.031,3.48,4.132,6.01,5.303c0.292,0.22,0.583,0.438,0.875,0.658c2.186,2.283,4.178,4.793,7.173,6.127
			c0.304,0.273,0.606,0.546,0.911,0.819c0.382,0.336,0.764,0.672,1.146,1.007c0,0-0.033-0.025-0.033-0.026
			c3.283,3.144,6.558,6.295,8.935,10.229c-0.085,0.295-0.004,0.537,0.243,0.721c-0.082,0.852,0.001,1.643,0.802,2.166
			c-0.096,0.308-0.036,0.581,0.178,0.821c0.203,2.679,0.406,5.358,0.609,8.037c-0.601,2.249-1.2,4.497-1.799,6.747
			c-0.587,0.185-0.862,0.569-0.77,1.193c-4.038,6.292-9.502,10.854-17.114,11.189c-5.185,0.228-6.4,2.365-5.631,6.839
			c0.166,0.965,0.245,1.944,0.365,2.917 M197.043,119.796c6.679,1.033,11.482-1.472,13.517-7.049c2.019-5.536-0.062-10.293-6-13.948
			c-0.969-0.597-1.725-1.537-2.588-2.299c-8.045-7.085-15.358-13.962-23.574-20.317l-0.008,0.072
			c-0.363-0.335-0.726-0.668-1.089-1.003l0.044,0.044c-0.355-0.32-0.712-0.642-1.068-0.961c0,0-0.014-0.016-0.014-0.015
			c-1.205-1.903-2.857-3.284-4.902-4.208c-0.29-0.278-0.58-0.555-0.869-0.833c-0.398-0.325-0.795-0.648-1.192-0.972l0.017,0.014
			c-0.346-0.318-0.691-0.636-1.037-0.953l-0.023-0.021c-1.217-1.858-2.961-3.073-4.911-4.04l-0.007,0.016
			c-0.345-0.325-0.688-0.649-1.034-0.974l-0.01-0.01c-0.339-0.31-0.679-0.622-1.018-0.932c-0.379-0.33-0.756-0.657-1.133-0.985
			c-0.59-0.469-1.18-0.938-1.77-1.405c-4.248-4.304-8.839-8.205-13.756-11.724c-0.423-0.328-0.846-0.657-1.27-0.984l0.06-0.031
			c-8.002-6.952-15.936-13.985-24.043-20.812c-2.843-2.394-6.304-2.407-9.149,0.003c-8.091,6.851-16.011,13.902-23.998,20.875
			c-7.662,5.917-15.063,12.142-22.066,18.831c-1.146,1.118-1.663,1.173-2.747,2.179c-0.35,0.317-0.701,0.633-1.05,0.951
			c-0.348,0.314-0.695,0.63-1.042,0.943c-0.351,0.319-0.7,0.64-1.051,0.958c-0.358,0.306-0.718,0.609-1.076,0.916
			c-1.565,1.096-1.918,1.859-3.789,3.196c-0.348,0.316-0.696,0.634-1.044,0.949c-0.367,0.303-0.735,0.604-1.102,0.905
			c-1.315,0.601-0.726,1.02-2.741,2.25c-8.333,6.593-16.58,13.287-24.22,20.693c-6.646,4.563-7.717,11.076-2.829,17.212
			c3.343,3.729,7.26,5.166,12.072,3.019l-0.017,0.021c1.615-0.108,2.935-0.758,3.867-2.116l0.056-0.046
			c0.34-0.303,0.68-0.606,1.021-0.91c0.345-0.308,0.69-0.614,1.035-0.922c0.354-0.325,0.707-0.649,1.061-0.973
			c0.343-0.321,0.685-0.642,1.027-0.961l-0.046-0.008c0.453-0.332,0.905-0.663,1.358-0.995c1.152-0.33,1.99-1.049,2.576-2.081
			c0.346-0.333,0.689-0.669,1.035-1.003l3.27,0.502c0.967-0.324-1.638-1.475-1.213-2.386l-0.004-0.01
			c1.283-0.278,2.244-0.968,2.797-2.181l0.071-0.057c0.332-0.299,0.665-0.597,0.998-0.896l0.028-0.023
			c0.345-0.317,0.689-0.635,1.033-0.951l-0.014,0.014c0.35-0.334,0.699-0.667,1.048-1l-0.019,0.028
			c0.38-0.288,0.759-0.576,1.138-0.863c0.75-0.598,1.5-1.195,2.25-1.792c1.524-0.753,2.728-1.864,3.659-3.278
			c6.018-4.226,11.448-9.149,16.839-14.121c2.523-2.093,9.066-0.547,10.824-3.485l-0.776-1.331c0.919,0.037,2.147-1.444,3.355-1.913
			l1.747,1.082c5.361,0.823-1.938-2.32-1.58-2.663l5.075-1.049c0.448-0.336-0.448-0.529,0-0.865c3.437-2.774-0.113-4.922,3-8.022
			c5.696-5.674,12.271-7.984,20.171-6.573l0.035-0.041c1.244,0.769,2.794,1.034,4.064,1.933c0.624,0.43,1.246,0.86,1.87,1.291
			c0.686,0.58,1.374,1.16,2.061,1.739l0.029-0.008c0.343,0.328,0.685,0.656,1.025,0.985c0.361,0.313,0.723,0.626,1.085,0.939
			c0.545,0.575,1.146,0.685,1.8,1.258c0,0-0.063-0.016-0.061-0.019c12.522,11.83,25.794,22.787,39.186,33.604l0.083,0.06
			 M192.304,117.265 M187.087,112.499l-0.056-0.059c0.362,0.345,0.723,0.69,1.085,1.036l-0.061-0.002 M183.162,109.348l0.027,0.025
			 M114.914,210.291c17.963,0,35.925,0.002,53.887-0.001c11.532-0.003,17.378-5.854,17.392-17.5
			c0.024-19.459-0.321-38.926,0.177-58.372c0.164-6.471-2.31-10.307-6.957-14.18c-19.493-16.243-38.785-32.729-58.036-49.261
			c-5.286-4.541-7.593-4.877-12.861-0.386c-20.605,17.565-41.142,35.213-61.843,52.665c-2.427,2.046-3.453,4.003-3.436,7.121
			c0.114,21.123,0.045,42.245,0.084,63.367c0.02,10.689,5.956,16.545,16.71,16.555C78.324,210.316,96.619,210.304,114.914,210.291z
			 M177.187,60.583c0-11.66,0.193-22.216-0.09-32.758c-0.124-4.563-4.617-7.67-9.526-7.421c-4.872,0.247-8.061,3.273-8.232,8.181
			c-0.167,4.809-0.054,9.628-0.039,14.442c0.003,1.142-0.139,2.328,0.911,3.212C165.61,50.786,170.997,55.349,177.187,60.583z"/>
		<path fill-rule="evenodd" clip-rule="evenodd" fill="#0B3D65" d="M7.797,111.583c0.827,0.762,0.642,1.746,0.597,2.7
			C7.524,113.531,7.546,112.583,7.797,111.583z"/>
		<path fill-rule="evenodd" clip-rule="evenodd" fill="#04A8E3" d="M114.914,210.297c-18.295,0.007-36.59,0.02-54.884,0.002
			c-10.754-0.01-16.69-5.866-16.71-16.555c-0.039-21.123,0.03-42.245-0.084-63.367c-0.018-3.118,1.009-5.075,3.436-7.121
			c20.701-17.452,41.237-35.1,61.843-52.665c5.269-4.491,7.575-4.155,12.861,0.386c19.251,16.532,38.543,33.018,58.036,49.261
			c4.647,3.874,7.121,7.709,6.957,14.18c-0.498,19.446-0.152,38.913-0.177,58.372c-0.014,11.646-5.859,17.498-17.392,17.5
			C150.839,210.293,132.877,210.291,114.914,210.297z M162.273,133.516c-1.534-4.276-3.395-9.405-6.344-14.04
			c-0.853-1.338-2.453-1.642-3.981-1.696c-6.678-0.239-9.802-3.154-10.46-10c-0.207-2.167-0.841-3.781-3.077-4.602
			c-3.737-1.373-7.399-2.956-11.126-4.363c-2.775-1.048-5.061-0.345-7.176,1.837c-3.56,3.669-8.783,3.721-12.707,0.39
			c-4.349-3.694-19.708,1.363-21,6.931c-0.148,0.639-0.123,1.319-0.153,1.982c-0.258,5.588-3.487,8.963-9.027,9.428
			c-5.703,0.478-12.892,15.774-9.614,20.477c0.281,0.405,0.675,0.731,1.009,1.098c3.766,4.142,3.94,8.842,0.489,13.138
			c-3.357,4.181,1.713,19.574,6.923,20.962c0.631,0.168,1.316,0.147,1.978,0.185c5.838,0.322,8.946,3.148,9.536,8.846
			c0.323,3.125,1.777,5.245,4.762,6.349c3.111,1.149,6.201,2.36,9.272,3.611c3.104,1.264,5.658,0.787,8.101-1.682
			c3.097-3.129,8.78-3.407,12.003-0.53c2.896,2.587,5.719,2.886,9.094,1.18c2.809-1.42,5.733-2.625,8.651-3.817
			c2.803-1.144,3.985-3.028,3.97-6.147c-0.027-5.347,4.043-9.508,9.413-9.674c3.172-0.098,5.298-1.513,5.792-4.396
			c0.925-5.393,7.149-10.102,2.817-16.1c-4.108-5.687-4.524-9.22-0.356-14.786C161.895,136.983,162.49,135.872,162.273,133.516z"/>
		<path fill-rule="evenodd" clip-rule="evenodd" fill="#08E1C9" d="M163.337,63.323c-0.345-0.325-0.688-0.649-1.034-0.974
			C162.648,62.673,162.992,62.998,163.337,63.323z"/>
		<path fill-rule="evenodd" clip-rule="evenodd" fill="#08E1C9" d="M128.264,62.435c0.343,0.328,0.685,0.656,1.025,0.985
			C128.948,63.091,128.606,62.763,128.264,62.435z"/>
		<path fill-rule="evenodd" clip-rule="evenodd" fill="#08E1C9" d="M162.293,62.339c-0.339-0.31-0.68-0.622-1.019-0.932
			C161.614,61.717,161.954,62.03,162.293,62.339z"/>
		<path fill-rule="evenodd" clip-rule="evenodd" fill="#08E1C9" d="M144.617,47.293c-0.423-0.328-0.846-0.656-1.27-0.984
			C143.771,46.636,144.194,46.965,144.617,47.293z"/>
		<path fill-rule="evenodd" clip-rule="evenodd" fill="#08E1C9" d="M185.986,111.51c0.368,0.33,0.734,0.657,1.102,0.989
			C186.721,112.169,186.354,111.84,185.986,111.51z"/>
		<path fill-rule="evenodd" clip-rule="evenodd" fill="#0CDDC8" d="M53.473,103.368c0.35-0.334,0.698-0.667,1.048-1
			C54.172,102.701,53.822,103.034,53.473,103.368z"/>
		<path fill-rule="evenodd" clip-rule="evenodd" fill="#0CDDC8" d="M41.536,113.433c0.451-0.332,0.902-0.663,1.356-0.995
			C42.441,112.77,41.989,113.102,41.536,113.433z"/>
		<path fill-rule="evenodd" clip-rule="evenodd" fill="#08E1C9" d="M187.031,112.44c0.362,0.345,0.723,0.689,1.085,1.036
			C187.754,113.131,187.394,112.786,187.031,112.44z"/>
		<path fill-rule="evenodd" clip-rule="evenodd" fill="#0CDDC8" d="M37.438,117.208c0.34-0.303,0.68-0.606,1.021-0.91
			C38.118,116.601,37.778,116.904,37.438,117.208z"/>
		<path fill-rule="evenodd" clip-rule="evenodd" fill="#E8E9E9" d="M37.473,210.141c-0.317-0.386-0.633-0.771-0.949-1.156
			C36.84,209.37,37.155,209.755,37.473,210.141z"/>
		<path fill-rule="evenodd" clip-rule="evenodd" fill="#0CDDC8" d="M52.453,104.305c0.345-0.317,0.689-0.635,1.033-0.951
			C53.143,103.67,52.798,103.988,52.453,104.305z"/>
		<path fill-rule="evenodd" clip-rule="evenodd" fill="#08E1C9" d="M178.39,76.254c-0.363-0.334-0.726-0.668-1.089-1.002
			C177.664,75.586,178.026,75.919,178.39,76.254z"/>
		<path fill-rule="evenodd" clip-rule="evenodd" fill="#F0F2F4" d="M193.927,74.562"/>
		<path fill-rule="evenodd" clip-rule="evenodd" fill="#08E1C9" d="M177.345,75.295c-0.355-0.32-0.712-0.642-1.069-0.961
			C176.633,74.654,176.989,74.975,177.345,75.295z"/>
		<path fill-rule="evenodd" clip-rule="evenodd" fill="#0CDDC8" d="M88.499,73.429"/>
		<path fill-rule="evenodd" clip-rule="evenodd" fill="#0CDDC8" d="M88.436,73.484c0.447-0.335,8.148-0.167,8.598-0.502
			C96.586,73.316,88.884,73.149,88.436,73.484z"/>
		<path fill-rule="evenodd" clip-rule="evenodd" fill="#0CDDC8" d="M51.427,105.224c0.333-0.299,0.665-0.597,0.999-0.896
			C52.092,104.627,51.759,104.925,51.427,105.224z"/>
		<path fill-rule="evenodd" clip-rule="evenodd" fill="#08E1C9" d="M170.491,69.279c-0.398-0.325-0.795-0.648-1.192-0.972
			C169.696,68.63,170.093,68.954,170.491,69.279z"/>
		<path fill-rule="evenodd" clip-rule="evenodd" fill="#0CDDC8" d="M45.471,110.358c0.346-0.333,0.689-0.669,1.035-1.003
			C46.16,109.689,45.816,110.024,45.471,110.358z"/>
		<path fill-rule="evenodd" clip-rule="evenodd" fill="#08E1C9" d="M169.315,68.321c-0.347-0.318-0.691-0.636-1.037-0.953
			C168.624,67.685,168.97,68.002,169.315,68.321z"/>
		<path fill-rule="evenodd" clip-rule="evenodd" fill="#E5E6E7" d="M216.163,131.275"/>
		<path fill-rule="evenodd" clip-rule="evenodd" fill="#0B3B62" d="M163.367,132.856c0.222,2.413-0.39,3.551-1.242,4.692
			c-4.271,5.7-3.842,9.318,0.363,15.143c4.438,6.144-1.937,10.967-2.883,16.49c-0.509,2.951-2.685,4.401-5.935,4.501
			c-5.5,0.169-9.668,4.431-9.64,9.908c0.016,3.194-1.194,5.125-4.066,6.296c-2.987,1.221-5.983,2.454-8.859,3.91
			c-3.457,1.747-6.347,1.441-9.314-1.209c-3.3-2.947-9.121-2.662-12.293,0.544c-2.501,2.528-5.118,3.017-8.296,1.722
			c-3.146-1.281-6.311-2.521-9.497-3.698c-3.057-1.131-4.546-3.302-4.877-6.503c-0.604-5.835-3.787-8.73-9.767-9.06
			c-0.678-0.038-1.378-0.018-2.024-0.189c-5.337-1.421-10.529-17.187-7.091-21.468c3.535-4.4,3.355-9.215-0.501-13.456
			c-0.343-0.375-0.745-0.709-1.033-1.124c-3.357-4.816,4.005-20.483,9.847-20.972c5.674-0.477,8.981-3.932,9.245-9.656
			c0.031-0.68,0.005-1.376,0.157-2.03c1.323-5.701,17.054-10.882,21.509-7.099c4.018,3.412,9.368,3.36,13.013-0.397
			c2.168-2.235,4.508-2.955,7.35-1.882c3.817,1.44,7.567,3.063,11.396,4.468c2.288,0.842,2.938,2.495,3.15,4.713
			c0.674,7.011,3.873,9.997,10.714,10.241c1.563,0.056,3.203,0.367,4.075,1.738C159.891,123.224,161.796,128.477,163.367,132.856z
			 M139.854,124.377l0.024,0.027c-0.339-0.362-0.679-0.724-1.021-1.085l0.038,0.034c-0.355-0.351-0.709-0.703-1.065-1.054
			l0.017,0.034c-0.329-0.356-0.659-0.711-0.988-1.066c-0.373-0.308-0.745-0.616-1.118-0.924c-0.278-0.77-0.892-1.079-1.647-1.187
			c-0.24-0.637-0.689-0.955-1.38-0.905l-0.003-0.003c-0.313-0.386-0.625-0.773-0.938-1.158l0.06,0.119
			c-0.902-2.599,1.549-6.261-2.691-7.834c-3.033-1.126-4.348,0.714-5.706,2.749l0.02-0.014c-6.067,1.125-12.212,0.566-18.317,0.841
			c0,0,0.115,0.055,0.114,0.055c-1.741-1.221-2.306-4.179-5.514-3.245c-3.164,0.92-3.588,2.837-3.213,5.724
			c0.188,1.445-0.855,2.866-2.081,3.891c-2.732,2.284-5.188,4.833-7.317,7.692c-1.175,1.576-2.694,2.301-4.738,2.444
			c-4.651,0.325-5.652,2.28-3.797,6.858c0.336,0.422,0.673,0.843,1.009,1.266l0.076-0.026c-0.03,6.533-0.061,13.066-0.091,19.598
			l-0.004-0.009c-0.347,0.347-0.694,0.694-1.041,1.042l0.021-0.027c-0.325,0.415-0.65,0.831-0.975,1.246
			c0.104,0.198,0.095,0.392-0.027,0.579c-0.08,0.868,0.029,1.663,0.842,2.186l0.068,0.168c0.019,0.805,0.241,1.502,1.005,1.915
			c0.355,0.181,0.71,0.364,1.065,0.544c1.241,2.761,2.828-0.017,4.225,0.263l0.026-0.067c0.368,0.401,0.738,0.802,1.108,1.203
			c2.235-0.066,2.682,2,3.839,3.221c0.364,0.3,0.729,0.602,1.094,0.903l-0.019-0.017c0.348,0.348,0.696,0.695,1.045,1.044
			l-0.024-0.025c0.367,0.334,0.736,0.668,1.105,1.003l-0.045-0.057c0.271,0.901,0.978,1.153,1.812,1.21l0.146,0.105
			c0.33,0.277,0.658,0.554,0.987,0.831l0.086,0.068c0.297,0.321,0.594,0.642,0.891,0.962l0.089,0.161
			c0.499,2.322-1.414,5.182,1.556,6.951l0.287-0.063l0.199,0.216c0.503,0.8,1.266,0.954,2.13,0.856l0.016-0.022
			c0.034,0.756-0.073,1.715,1.007,1.669c0.329-0.014,0.621-0.882,0.932-1.359c0.236-0.197,0.51-0.28,0.817-0.247
			c0.382-0.398,0.763-0.797,1.144-1.196c0.336-1.025,1.014-1.669,2.089-1.87c5.884-0.028,11.77-0.057,17.652-0.085
			c0.529,0.177,1.057,0.354,1.584,0.531l-0.119-0.122c0.365,0.37,0.732,0.738,1.098,1.106l-0.069,0.023
			c1.384,1.771,2.622,0.901,3.847-0.209l0.337,0.006l0.242-0.234c3.496-1.572,0.141-5.06,1.984-7.094
			c3.123-2.834,6.457-5.457,8.812-9.047c0.99-1.507,2.444-2.374,4.264-2.325c2.317,0.059,4.206-0.123,5.118-2.882
			c0.972-2.927-0.941-3.933-2.711-5.212c-0.322-0.479-0.644-0.959-0.966-1.438c0.135-0.228,0.093-0.416-0.123-0.565
			c0.061-1.866,0.006-3.746,0.205-5.597c0.446-4.138-1.463-8.5,1.179-12.424c0.342-0.343,0.683-0.688,1.027-1.03
			c1.1-0.434,1.31-1.111,1.09-2.325c-0.988-5.426-5.482-3.366-8.63-4.174l-0.006-0.002c-0.351-0.292-0.703-0.582-1.052-0.874
			c-0.347-0.385-0.691-0.771-1.037-1.156C140.49,125.104,140.173,124.741,139.854,124.377z"/>
		<path fill-rule="evenodd" clip-rule="evenodd" fill="#E8E9E9" d="M200.199,74.361c0.075-0.134,0.151-0.268,0.227-0.401
			c-0.073,0.136-0.147,0.271-0.222,0.406L200.199,74.361z"/>
		<path fill-rule="evenodd" clip-rule="evenodd" fill="#0F3C5B" d="M79.498,136.948c0.329,0.411,0.658,0.823,0.987,1.234
			C80.155,137.771,79.827,137.359,79.498,136.948z"/>
		<path fill-rule="evenodd" clip-rule="evenodd" fill="#E2CE57" d="M121.442,178.033c0.95,0.036,1.901,0.073,2.852,0.109
			c0.004,0.356,0.009,0.713,0.014,1.069c-5.628,0.058-11.255,0.114-16.882,0.17C111.892,176.777,116.819,178.991,121.442,178.033z"
			/>
		<g>
			<path fill-rule="evenodd" clip-rule="evenodd" fill="#E2CE57" d="M141.32,123.471c0.002,0.002,0.004,0.004,0.006,0.008
				c0.007,0.006,0.013,0.014,0.02,0.02C141.346,123.498,141.32,123.47,141.32,123.471z"/>
			<path fill-rule="evenodd" clip-rule="evenodd" fill="#E2CE57" d="M125.079,181.866 M127.015,183.327
				c0.347,0.348,0.691,0.695,1.038,1.042c-0.002,0.002-0.074,0.027-0.074,0.027c1.46,1.871,2.769,0.952,4.062-0.222
				c0.001,0,0.356,0.007,0.356,0.007l0.256-0.249c3.431-1.542,0.625-4.828,1.766-7.009c0.108-0.163,0.21-0.326,0.33-0.484
				c3.301-2.993,6.822-5.764,9.311-9.557c1.045-1.592,2.581-2.507,4.503-2.457c2.447,0.063,4.442-0.129,5.408-3.044
				c1.024-3.091-0.996-4.155-2.864-5.506c-0.34-0.505-0.679-1.012-1.019-1.519c0.141-0.241,0.096-0.439-0.134-0.597
				c0.064-1.971,0.008-3.957,0.218-5.913c0.471-4.37-1.545-8.979,1.245-13.124c0.36-0.364,0.723-0.726,1.084-1.09
				c1.164-0.458,1.386-1.173,1.152-2.455c-1.044-5.732-5.791-3.555-9.116-4.41l-0.007-0.002c-0.37-0.308-0.74-0.614-1.111-0.922
				c-0.365-0.406-0.729-0.814-1.094-1.222c-0.332-0.381-0.665-0.762-0.998-1.142c-0.353-0.375-0.705-0.75-1.059-1.126
				c-0.001,0,0.038,0.036,0.038,0.036c-0.374-0.372-0.748-0.743-1.123-1.114l0.017,0.035c-0.37,0.042-0.739,0.083-1.108,0.124
				c-0.23,0.371-0.459,0.739-0.688,1.109c0.229-0.371,0.458-0.739,0.688-1.11c0.37-0.04,0.739-0.081,1.109-0.123
				c-0.349-0.375-0.697-0.75-1.046-1.124c-0.393-0.326-0.786-0.652-1.18-0.977c-0.295-0.814-0.942-1.14-1.74-1.254
				c-0.255-0.672-0.729-1.009-1.459-0.957c0.001,0-0.002-0.003-0.002-0.003c-0.315-0.389-0.632-0.778-0.947-1.169
				c-0.887-2.741,1.617-6.557-2.825-8.205c-3.197-1.188-4.587,0.746-6.019,2.89c-6.39,1.184-12.861,0.602-19.291,0.885
				c-1.78-1.32-2.41-4.341-5.751-3.368c-3.343,0.973-3.79,2.997-3.394,6.047c0.198,1.526-0.905,3.027-2.199,4.11
				c-2.887,2.413-5.479,5.105-7.731,8.126c-1.241,1.664-2.845,2.431-5.004,2.582c-4.913,0.343-5.973,2.407-4.012,7.245
				c0.356,0.446,0.712,0.891,1.066,1.336c0,0.001,0.08-0.026,0.08-0.026c0.595,0.436,1.188,0.87,1.783,1.305l0.017,0.018
				c0.143,4.999-0.188,10.046-0.048,15.047c-0.365,1.677,0.194,3.545-1.848,4.334l-0.005-0.01c-0.366,0.368-0.732,0.734-1.1,1.102
				l0.022-0.028c-0.344,0.438-0.688,0.877-1.031,1.316c0.112,0.209,0.103,0.414-0.027,0.611c0.296,0.771,0.593,1.541,0.889,2.311
				c0-0.001,0.072,0.177,0.072,0.177c0.354,0.674,0.709,1.348,1.063,2.022c0.374,0.192,0.748,0.383,1.123,0.574
				c1.313,2.917,2.988-0.017,4.463,0.281c0-0.002,0.027-0.074,0.027-0.074c0.392,0.424,0.781,0.847,1.172,1.271
				c1.731,1.671,2.834,2.113,4.056,3.401c0.719,0.576,0.588,0.931,1.155,0.953c0,0.001-0.02-0.016-0.02-0.016
				c0.36,0.36,0.722,0.721,1.083,1.081c0.388,0.352,0.774,0.704,1.162,1.056c0.001,0-0.047-0.06-0.047-0.06
				c0.886,0.057,0.998,0.932,1.914,1.279l0.155,0.11c0.348,0.293,0.695,0.587,1.043,0.879c0-0.002,0.091,0.071,0.091,0.071
				c0.642,0.035,0.871,0.55,0.94,1.016c-0.001,0,0,0,0,0c1.146,2.366,0.418,5.237,1.736,7.514c0.001,0,0.305-0.067,0.305-0.067
				l-0.305,0.067c0.874-0.009,2.023,1.026,2.765,1.065l0.017-0.023c0.682,0.108,1.365,0.218,2.047,0.328
				c0.25-0.208,0.54-0.296,0.864-0.26c0.403-0.421,0.807-0.842,1.208-1.264c0.355-1.084,1.192-2.574,2.327-2.787
				c0.035-0.271-0.045,0.27,0,0c4.83-2.817,10.162-0.422,15.164-1.458c1.028,0.039,2.057,0.079,3.084,0.118 M80.884,146.26
				C80.883,146.26,80.883,146.26,80.884,146.26c0.335-1.099,0.67-2.2,1.004-3.298C81.554,144.061,81.219,145.162,80.884,146.26z
				 M81.928,146.165c1.463,0.063,2.485,0.983,3.504,1.915C84.413,147.148,83.391,146.227,81.928,146.165z M132.822,115.823
				c0.006,0.026,0.016,0.05,0.021,0.076l-0.063-0.127C132.795,115.789,132.809,115.806,132.822,115.823z M101.345,115.943
				L101.345,115.943l-0.01,0.012L101.345,115.943z M140.034,155.798c-0.818,0.531-0.92,1.385-0.981,2.256
				c-0.396,0.703-0.793,1.406-1.191,2.109c-0.341,0.562-0.685,1.122-1.025,1.683c-0.364,0.508-0.729,1.018-1.093,1.527
				c0.021-0.022,0.042-0.046,0.063-0.069l-0.094,0.111c0.01-0.014,0.021-0.027,0.03-0.042c-0.346,0.38-0.575,0.76-0.92,1.14
				l0.177-0.023c0,0.001,0,0.002,0,0.003c0,0.372-0.867,0.742-1.243,1.114c-0.34,0.326-0.967,0.656-1.308,0.983
				c-0.39,0.359-1.449,0.717-1.449,1.075c0-0.011,0-0.018,0-0.026c-1,0.379-2.271,0.99-3.008,2.227
				c0.014,0.001,0.141,0.002,0.154,0.002c-0.758,2.634-2.183,3.325-3.914,3.394c1.726-0.074,3.251-0.776,4.002-3.435
				c-2.732,1.029-5.449,2.056-8.18,3.087c-0.036-0.006-0.355,0.159-0.355,0.159c-0.002,0.01,0.002,0.261,0,0.261
				c0.001,0,0.002,0,0.002,0c-0.089,0-0.236,0.354-0.421,0.555c-0.276,0.308-0.642,0.373-1.055,0.457
				c-0.199,0.048-0.409,0.025-0.624,0.052c-0.305-0.028-0.614-0.061-0.923-0.074c-2.027,0.02-4.117,0.058-6.115-0.147
				c1.998,0.205,4.089,0.062,6.115,0.148c0.309-0.003,0.619,0.009,0.925,0.009h0.002c0.214,0,0.422-0.044,0.62-0.085
				c0.414-0.102,0.778-0.286,1.055-0.584c0.183-0.205,0.043-0.468,0.133-0.796c-5.199,0.876-10.414-0.347-15.414-1.657v0.003
				c-4-2.066-7.062-4.8-10.271-7.829c-0.462-0.65-0.781-1.299-1.243-1.951l0.033-0.001c-0.288-0.39-0.518-1.1-0.807-1.1
				c0.001,0,0.008,0,0.008,0c-0.05-1-0.275-1.768-1.12-2.253c-1.854-5.591-2.707-11.332-1.979-17.221l-0.16-0.243L88,140.371
				c0-0.001,0-0.002,0-0.003c2-3.048,3.115-6.15,4.509-9.198c-0.014,0,0.065-0.001,0.052,0.002c0.024-0.005,0.09,0.1,0.109,0.079
				c0.007-0.01,0.091,0.083,0.083,0.083h0.032c-0.027,0-0.049-0.106-0.069-0.083c0,0.001-0.006-0.057-0.005-0.057
				c-0.007,0.014-0.012-0.006-0.018,0.008c0.039-0.001,0.077-0.016,0.115-0.022c0.323-0.395,0.649-0.785,0.973-1.178l-0.003,0.009
				c0.325-0.37,0.653-0.736,0.979-1.105c0.371-0.408,0.742-0.816,1.112-1.224c10.819-9.128,22.357-9.901,34.558-2.974
				c0-0.014-0.004-0.023-0.004-0.037c0.383,0.34,0.766,0.681,1.149,1.023c0.415,0.333,0.831,0.667,1.249,0.999
				c0.078,1.989,1.892,2.357,3.085,3.305c0.321,0.375,0.643,0.751,0.964,1.129c0.089,0.877,0.341,1.658,1.22,2.072l0.01,0.017
				c0.26,1.463,0.881,2.745,1.914,3.821c-0.132,0.244-0.069,0.418,0.187,0.523C141.528,143.653,141.76,149.734,140.034,155.798z"/>
			<path fill-rule="evenodd" clip-rule="evenodd" fill="#E2CE57" d="M90.614,173.147c-0.007-0.008-0.014-0.014-0.021-0.021
				c-0.002-0.001-0.004-0.003-0.005-0.004C90.589,173.122,90.614,173.148,90.614,173.147z"/>
		</g>
		<circle fill-rule="evenodd" clip-rule="evenodd" fill="#0F3C5B" cx="114.422" cy="146.683" r="28.371"/>
		<path fill-rule="evenodd" clip-rule="evenodd" fill="#06C5B0" d="M114.709,160.332c-7.75-0.032-14.167-6.235-14.127-13.657
			c0.041-7.485,7.047-14.5,14.366-14.385c7.204,0.113,14.135,7.032,14.15,14.121C129.114,154.145,122.685,160.365,114.709,160.332z"
			/>
		<polygon fill-rule="evenodd" clip-rule="evenodd" fill="#0B3D65" points="100.527,74.78 32.471,128.276 33.978,119.749 
			104.127,60.846 		"/>
		<polygon fill-rule="evenodd" clip-rule="evenodd" fill="#0B3D65" points="210.185,95.704 186.224,81.352 188.116,69.473 
			210.53,89.185 		"/>
		<polygon fill-rule="evenodd" clip-rule="evenodd" fill="#0B3D65" points="179.721,77.217 119.364,25.466 128.264,21.698 
			180.233,66.376 		"/>
		<polygon fill-rule="evenodd" clip-rule="evenodd" fill="#0B3D65" points="104.354,22.447 16.38,100.371 19.053,89.415 
			99.362,20.878 		"/>
	</g>
	<g>
		<path fill="#0B3D65" d="M263.392,111.612V10.342h44.042c11.074,0,19.122,0.909,24.142,2.729s9.036,5.055,12.054,9.705
			c3.015,4.652,4.523,9.972,4.523,15.957c0,7.6-2.286,13.874-6.856,18.824c-4.572,4.952-11.406,8.072-20.502,9.36
			c4.525,2.58,8.26,5.412,11.206,8.497c2.944,3.086,6.915,8.566,11.911,16.44l12.654,19.757H331.54l-15.129-22.036
			c-5.372-7.875-9.048-12.836-11.027-14.887c-1.98-2.049-4.078-3.454-6.292-4.213c-2.216-0.761-5.727-1.141-10.534-1.141h-4.242
			v42.276H263.392z M284.315,53.17h15.483c10.038,0,16.306-0.414,18.805-1.242c2.496-0.83,4.453-2.257,5.867-4.283
			c1.414-2.025,2.121-4.56,2.121-7.599c0-3.407-0.932-6.159-2.793-8.255c-1.862-2.095-4.489-3.42-7.883-3.973
			c-1.696-0.229-6.786-0.345-15.269-0.345h-16.332V53.17z"/>
		<path fill="#0B3D65" d="M365.647,111.612V10.342h20.926v101.27H365.647z"/>
		<path fill="#0B3D65" d="M399.614,78.662l20.359-1.935c1.225,6.679,3.711,11.583,7.458,14.715
			c3.746,3.132,8.801,4.696,15.164,4.696c6.738,0,11.816-1.393,15.234-4.179c3.415-2.786,5.125-6.045,5.125-9.775
			c0-2.394-0.719-4.432-2.156-6.113c-1.438-1.681-3.947-3.144-7.529-4.386c-2.45-0.83-8.035-2.303-16.754-4.422
			c-11.217-2.717-19.087-6.056-23.611-10.016c-6.363-5.572-9.544-12.366-9.544-20.379c0-5.157,1.496-9.982,4.489-14.473
			c2.991-4.49,7.304-7.909,12.937-10.258c5.631-2.35,12.431-3.523,20.396-3.523c13.008,0,22.798,2.787,29.373,8.358
			c6.574,5.573,10.026,13.011,10.356,22.313l-20.926,0.898c-0.896-5.203-2.816-8.945-5.762-11.225
			c-2.945-2.28-7.363-3.421-13.254-3.421c-6.08,0-10.841,1.222-14.28,3.662c-2.216,1.565-3.323,3.661-3.323,6.286
			c0,2.396,1.037,4.444,3.11,6.147c2.64,2.165,9.049,4.422,19.229,6.771c10.181,2.348,17.709,4.778,22.587,7.287
			c4.878,2.511,8.696,5.941,11.452,10.293c2.757,4.353,4.137,9.729,4.137,16.13c0,5.804-1.65,11.238-4.949,16.304
			c-3.3,5.066-7.966,8.831-13.997,11.293c-6.033,2.463-13.55,3.696-22.552,3.696c-13.103,0-23.164-2.958-30.186-8.877
			C405.175,98.615,400.979,89.991,399.614,78.662z"/>
		<path fill="#0B3D65" d="M499.891,111.612V10.342h76.844v17.132h-55.919v22.45h52.03v17.063h-52.03v27.563h57.897v17.063H499.891z"
			/>
		<path fill="#0B3D65" d="M594.865,111.612V10.342h76.844v17.132H615.79v22.45h52.03v17.063h-52.03v27.563h57.897v17.063H594.865z"
			/>
	</g>
	<g>
		<path fill="#5FC95F" d="M276.732,155.892v1.536c2.435-2.947,4.965-5.111,7.59-6.491c2.625-1.381,5.599-2.071,8.919-2.071
			c3.985,0,7.654,1.008,11.008,3.025c3.351,2.018,6,4.964,7.946,8.842c1.944,3.878,2.916,8.47,2.916,13.775
			c0,3.909-0.561,7.501-1.684,10.773c-1.123,3.273-2.665,6.019-4.625,8.238c-1.963,2.218-4.278,3.925-6.949,5.119
			c-2.674,1.194-5.545,1.792-8.612,1.792c-3.7,0-6.808-0.73-9.321-2.188c-2.515-1.458-4.91-3.599-7.188-6.421v19.08
			c0,5.584-2.072,8.377-6.215,8.377c-2.436,0-4.05-0.722-4.84-2.165c-0.791-1.442-1.185-3.544-1.185-6.305v-54.82
			c0-2.42,0.537-4.227,1.611-5.423c1.076-1.193,2.547-1.79,4.413-1.79c1.833,0,3.329,0.613,4.483,1.838
			C276.154,151.837,276.732,153.597,276.732,155.892z M302.113,174.368c0-3.351-0.521-6.228-1.566-8.632
			c-1.044-2.404-2.489-4.25-4.341-5.538c-1.85-1.287-3.897-1.931-6.143-1.931c-3.574,0-6.588,1.38-9.038,4.141
			c-2.45,2.763-3.677,6.826-3.677,12.194c0,5.056,1.217,8.989,3.652,11.796c2.436,2.809,5.456,4.212,9.063,4.212
			c2.15,0,4.143-0.613,5.978-1.838c1.833-1.226,3.305-3.064,4.412-5.515C301.561,180.807,302.113,177.842,302.113,174.368z"/>
		<path fill="#5FC95F" d="M337.873,182.093v10.61c0,2.576-0.617,4.507-1.852,5.794c-1.233,1.288-2.798,1.932-4.696,1.932
			c-1.866,0-3.399-0.652-4.602-1.955c-1.202-1.302-1.802-3.227-1.802-5.771v-35.367c0-5.708,2.102-8.563,6.308-8.563
			c2.152,0,3.701,0.667,4.651,2c0.948,1.335,1.47,3.305,1.564,5.911c1.549-2.606,3.139-4.576,4.768-5.911
			c1.629-1.333,3.802-2,6.523-2c2.721,0,5.36,0.667,7.923,2c2.562,1.335,3.843,3.103,3.843,5.306c0,1.552-0.546,2.832-1.637,3.84
			c-1.091,1.008-2.27,1.512-3.534,1.512c-0.475,0-1.621-0.286-3.44-0.861c-1.818-0.573-3.423-0.86-4.814-0.86
			c-1.897,0-3.448,0.489-4.649,1.465c-1.203,0.979-2.135,2.428-2.799,4.353c-0.664,1.923-1.123,4.21-1.376,6.863
			C337.999,175.042,337.873,178.277,337.873,182.093z"/>
		<path fill="#5FC95F" d="M411.871,174.601c0,3.785-0.603,7.275-1.805,10.47c-1.202,3.196-2.942,5.942-5.218,8.237
			c-2.278,2.296-4.999,4.057-8.16,5.282c-3.163,1.225-6.721,1.838-10.675,1.838c-3.922,0-7.448-0.622-10.579-1.861
			c-3.131-1.241-5.845-3.018-8.137-5.329c-2.293-2.312-4.032-5.041-5.219-8.191c-1.185-3.148-1.778-6.632-1.778-10.447
			c0-3.847,0.6-7.369,1.803-10.564c1.202-3.195,2.926-5.926,5.172-8.19c2.245-2.265,4.965-4.01,8.159-5.236
			c3.194-1.225,6.72-1.838,10.579-1.838c3.921,0,7.479,0.621,10.675,1.861c3.194,1.24,5.93,3.009,8.208,5.305
			c2.276,2.298,4.009,5.026,5.194,8.19C411.276,167.294,411.871,170.785,411.871,174.601z M398.871,174.601
			c0-5.182-1.163-9.215-3.488-12.1c-2.323-2.886-5.448-4.328-9.369-4.328c-2.531,0-4.76,0.645-6.688,1.932
			c-1.929,1.287-3.415,3.187-4.46,5.7c-1.043,2.513-1.565,5.445-1.565,8.796c0,3.32,0.513,6.219,1.542,8.702
			c1.027,2.483,2.497,4.383,4.411,5.701c1.914,1.318,4.168,1.978,6.761,1.978c3.921,0,7.046-1.45,9.369-4.351
			C397.708,183.73,398.871,179.72,398.871,174.601z"/>
		<path fill="#5FC95F" d="M433.538,155.892v1.536c2.436-2.947,4.965-5.111,7.592-6.491c2.625-1.381,5.598-2.071,8.919-2.071
			c3.984,0,7.652,1.008,11.006,3.025c3.352,2.018,6.002,4.964,7.946,8.842c1.945,3.878,2.917,8.47,2.917,13.775
			c0,3.909-0.562,7.501-1.684,10.773c-1.123,3.273-2.665,6.019-4.625,8.238c-1.962,2.218-4.279,3.925-6.95,5.119
			c-2.674,1.194-5.543,1.792-8.61,1.792c-3.702,0-6.809-0.73-9.322-2.188c-2.516-1.458-4.911-3.599-7.188-6.421v19.08
			c0,5.584-2.07,8.377-6.214,8.377c-2.437,0-4.05-0.722-4.839-2.165c-0.791-1.442-1.187-3.544-1.187-6.305v-54.82
			c0-2.42,0.537-4.227,1.613-5.423c1.074-1.193,2.545-1.79,4.412-1.79c1.834,0,3.328,0.613,4.483,1.838
			C432.961,151.837,433.538,153.597,433.538,155.892z M458.92,174.368c0-3.351-0.522-6.228-1.566-8.632
			c-1.043-2.404-2.49-4.25-4.341-5.538c-1.85-1.287-3.898-1.931-6.143-1.931c-3.575,0-6.587,1.38-9.038,4.141
			c-2.451,2.763-3.677,6.826-3.677,12.194c0,5.056,1.217,8.989,3.652,11.796c2.435,2.809,5.456,4.212,9.063,4.212
			c2.15,0,4.143-0.613,5.978-1.838c1.833-1.226,3.304-3.064,4.411-5.515C458.366,180.807,458.92,177.842,458.92,174.368z"/>
		<path fill="#5FC95F" d="M482.534,149.889h1.424v-7.632c0-2.047,0.054-3.652,0.165-4.816c0.111-1.163,0.419-2.164,0.925-3.001
			c0.506-0.868,1.234-1.575,2.183-2.118c0.949-0.542,2.009-0.813,3.179-0.813c1.644,0,3.131,0.604,4.46,1.815
			c0.885,0.807,1.447,1.791,1.684,2.955c0.238,1.163,0.356,2.815,0.356,4.956v8.655h4.743c1.834,0,3.234,0.427,4.199,1.281
			c0.964,0.852,1.447,1.946,1.447,3.28c0,1.707-0.688,2.902-2.063,3.583c-1.377,0.683-3.345,1.025-5.907,1.025h-2.419v23.361
			c0,1.986,0.071,3.515,0.213,4.584c0.143,1.07,0.522,1.94,1.139,2.607c0.617,0.666,1.62,1,3.013,1c0.759,0,1.786-0.132,3.084-0.396
			c1.296-0.264,2.308-0.396,3.036-0.396c1.044,0,1.983,0.412,2.822,1.232c0.838,0.823,1.258,1.838,1.258,3.049
			c0,2.047-1.139,3.614-3.417,4.7c-2.276,1.086-5.55,1.629-9.819,1.629c-4.05,0-7.116-0.668-9.204-2.001
			c-2.086-1.333-3.456-3.181-4.104-5.539c-0.648-2.357-0.972-5.506-0.972-9.447v-24.385h-1.708c-1.868,0-3.29-0.435-4.27-1.303
			c-0.98-0.869-1.472-1.97-1.472-3.305c0-1.333,0.514-2.428,1.542-3.28C479.079,150.316,480.572,149.889,482.534,149.889z"/>
		<path fill="#5FC95F" d="M551.88,177.718h-25.332c0.03,2.886,0.624,5.429,1.779,7.632c1.153,2.204,2.688,3.863,4.601,4.98
			c1.914,1.117,4.024,1.675,6.334,1.675c1.549,0,2.965-0.178,4.246-0.535c1.28-0.356,2.521-0.916,3.725-1.675
			c1.201-0.76,2.308-1.575,3.32-2.443c1.013-0.868,2.325-2.047,3.938-3.537c0.664-0.558,1.613-0.838,2.847-0.838
			c1.328,0,2.402,0.357,3.227,1.071c0.821,0.714,1.232,1.721,1.232,3.025c0,1.148-0.458,2.489-1.376,4.025
			c-0.918,1.536-2.301,3.01-4.15,4.421c-1.851,1.412-4.176,2.583-6.974,3.514c-2.799,0.93-6.019,1.396-9.654,1.396
			c-8.318,0-14.786-2.327-19.403-6.981c-4.619-4.654-6.928-10.966-6.928-18.94c0-3.753,0.57-7.237,1.708-10.448
			c1.14-3.21,2.8-5.963,4.982-8.259c2.183-2.296,4.869-4.057,8.064-5.283c3.194-1.225,6.736-1.838,10.627-1.838
			c5.06,0,9.401,1.047,13.022,3.142c3.621,2.093,6.334,4.801,8.137,8.12c1.802,3.321,2.704,6.701,2.704,10.146
			c0,3.194-0.934,5.266-2.8,6.212C557.89,177.246,555.266,177.718,551.88,177.718z M526.548,170.505h23.482
			c-0.315-4.344-1.511-7.593-3.581-9.75c-2.071-2.155-4.799-3.234-8.184-3.234c-3.228,0-5.875,1.095-7.946,3.28
			C528.246,162.99,526.989,166.224,526.548,170.505z"/>
		<path fill="#5FC95F" d="M619.426,184.699c0,1.582-0.482,3.273-1.446,5.072c-0.966,1.799-2.436,3.513-4.412,5.143
			c-1.978,1.628-4.468,2.939-7.473,3.932c-3.006,0.993-6.389,1.489-10.152,1.489c-8.001,0-14.249-2.289-18.739-6.865
			c-4.491-4.576-6.735-10.71-6.735-18.405c0-5.212,1.026-9.82,3.083-13.821c2.056-4.003,5.028-7.097,8.918-9.286
			c3.891-2.187,8.54-3.28,13.948-3.28c3.352,0,6.429,0.482,9.227,1.442c2.8,0.962,5.172,2.204,7.116,3.724
			c1.945,1.52,3.432,3.141,4.46,4.864c1.028,1.722,1.542,3.327,1.542,4.815c0,1.521-0.577,2.809-1.731,3.863
			c-1.154,1.055-2.555,1.583-4.198,1.583c-1.075,0-1.97-0.271-2.681-0.814c-0.711-0.542-1.512-1.419-2.396-2.628
			c-1.581-2.358-3.234-4.126-4.957-5.306c-1.724-1.179-3.914-1.769-6.57-1.769c-3.827,0-6.911,1.467-9.251,4.398
			c-2.341,2.932-3.511,6.942-3.511,12.029c0,2.39,0.3,4.584,0.901,6.584c0.6,2.003,1.47,3.708,2.609,5.12
			c1.139,1.413,2.514,2.482,4.128,3.211c1.612,0.729,3.384,1.093,5.313,1.093c2.593,0,4.815-0.588,6.666-1.768
			c1.851-1.179,3.485-2.978,4.909-5.398c0.791-1.426,1.644-2.543,2.562-3.351c0.918-0.807,2.04-1.21,3.369-1.21
			c1.581,0,2.895,0.59,3.938,1.769C618.905,182.109,619.426,183.366,619.426,184.699z"/>
		<path fill="#5FC95F" d="M640.479,137.604v18.848c1.645-1.862,3.25-3.335,4.815-4.421c1.566-1.086,3.297-1.9,5.194-2.443
			c1.898-0.542,3.938-0.814,6.12-0.814c3.289,0,6.206,0.682,8.753,2.047c2.545,1.366,4.547,3.351,6.001,5.957
			c0.918,1.521,1.535,3.219,1.851,5.096s0.475,4.041,0.475,6.492v24.338c0,2.544-0.594,4.469-1.779,5.771
			c-1.188,1.303-2.759,1.955-4.721,1.955c-4.27,0-6.404-2.576-6.404-7.726V171.25c0-4.065-0.617-7.191-1.851-9.377
			c-1.232-2.188-3.574-3.281-7.021-3.281c-2.309,0-4.389,0.643-6.239,1.93c-1.849,1.288-3.233,3.049-4.15,5.283
			c-0.695,1.892-1.044,5.258-1.044,10.099v16.799c0,2.514-0.578,4.43-1.733,5.748c-1.153,1.318-2.758,1.978-4.813,1.978
			c-4.27,0-6.405-2.576-6.405-7.726v-55.099c0-2.575,0.562-4.506,1.686-5.794c1.121-1.288,2.695-1.932,4.72-1.932
			c2.056,0,3.66,0.652,4.813,1.956C639.9,133.135,640.479,135.06,640.479,137.604z"/>
	</g>
</g>
</svg>
